<svg width="128" height="128" viewBox="0 0 128 128" fill="none" xmlns="http://www.w3.org/2000/svg">
  <rect width="128" height="128" rx="28" fill="url(#bg)"/>
  <rect x="18" y="24" width="92" height="84" rx="18" fill="rgba(255,255,255,0.7)" stroke="rgba(255,255,255,0.9)" stroke-width="6"/>
  <rect x="28" y="34" width="72" height="56" rx="12" fill="url(#glass)"/>
  <path d="M64 14V34" stroke="#64748B" stroke-width="8" stroke-linecap="round"/>
  <path d="M64 34C64 34 50 38 50 52V58" stroke="#475569" stroke-width="6" stroke-linecap="round"/>
  <path d="M64 34C64 34 78 38 78 52V58" stroke="#475569" stroke-width="6" stroke-linecap="round"/>
  <path d="M64 34V62" stroke="#94A3B8" stroke-width="6" stroke-linecap="round"/>
  <circle cx="64" cy="34" r="12" fill="url(#claw)"/>
  <path d="M56 58L50 70" stroke="#475569" stroke-width="5" stroke-linecap="round"/>
  <path d="M72 58L78 70" stroke="#475569" stroke-width="5" stroke-linecap="round"/>
  <path d="M64 60V74" stroke="#475569" stroke-width="5" stroke-linecap="round"/>
  <rect x="33" y="79" width="18" height="14" rx="7" fill="#FB7185"/>
  <rect x="54" y="73" width="20" height="18" rx="8" fill="#F59E0B"/>
  <rect x="77" y="80" width="17" height="13" rx="6.5" fill="#60A5FA"/>
  <defs>
    <linearGradient id="bg" x1="14" y1="9" x2="115" y2="121" gradientUnits="userSpaceOnUse">
      <stop stop-color="#FDE68A"/>
      <stop offset="0.45" stop-color="#FDBA74"/>
      <stop offset="1" stop-color="#FB7185"/>
    </linearGradient>
    <linearGradient id="glass" x1="64" y1="34" x2="64" y2="90" gradientUnits="userSpaceOnUse">
      <stop stop-color="#FFF7ED" stop-opacity="0.95"/>
      <stop offset="1" stop-color="#FFEDD5" stop-opacity="0.65"/>
    </linearGradient>
    <linearGradient id="claw" x1="64" y1="22" x2="64" y2="46" gradientUnits="userSpaceOnUse">
      <stop stop-color="#FDE68A"/>
      <stop offset="1" stop-color="#FB923C"/>
    </linearGradient>
  </defs>
</svg>
